G75*
G70*
%OFA0B0*%
%FSLAX24Y24*%
%IPPOS*%
%LPD*%
%AMOC8*
5,1,8,0,0,1.08239X$1,22.5*
%
%ADD10C,0.1182*%
%ADD11R,0.0674X0.0674*%
%ADD12C,0.0674*%
%ADD13C,0.0722*%
%ADD14C,0.1025*%
%ADD15C,0.1320*%
%ADD16C,0.1780*%
%ADD17C,0.0820*%
%ADD18OC8,0.0680*%
%ADD19R,0.0513X0.0474*%
%ADD20R,0.0474X0.0513*%
%ADD21C,0.0860*%
%ADD22C,0.0907*%
%ADD23C,0.0730*%
%ADD24R,0.0277X0.0336*%
%ADD25R,0.0680X0.0680*%
%ADD26C,0.0680*%
%ADD27C,0.1390*%
%ADD28OC8,0.0640*%
D10*
X001100Y002790D03*
X001100Y032790D03*
X039100Y032790D03*
X039100Y002790D03*
D11*
X033100Y026040D03*
D12*
X034100Y026040D03*
X035100Y026040D03*
X036100Y026040D03*
X035600Y027040D03*
X036600Y027040D03*
X034600Y027040D03*
X033600Y027040D03*
D13*
X033698Y024138D03*
X032698Y024138D03*
X036002Y024138D03*
X037002Y024138D03*
D14*
X037960Y028339D03*
X031740Y028339D03*
D15*
X032600Y029540D03*
X037100Y029540D03*
D16*
X027600Y028396D03*
X025750Y029577D03*
X027600Y030758D03*
D17*
X037210Y007570D03*
X038990Y007570D03*
X038990Y005010D03*
X037210Y005010D03*
D18*
X037600Y010790D03*
X038600Y010790D03*
X038600Y011790D03*
X037600Y011790D03*
X037600Y012790D03*
X038600Y012790D03*
X038600Y013790D03*
X037600Y013790D03*
X037600Y014790D03*
X038600Y014790D03*
X038600Y015790D03*
X038600Y016790D03*
X037600Y016790D03*
X037600Y015790D03*
X037600Y017790D03*
X038600Y017790D03*
X038600Y018790D03*
X037600Y018790D03*
X037600Y019790D03*
X038600Y019790D03*
D19*
X036435Y014790D03*
X035765Y014790D03*
X035765Y011790D03*
X036435Y011790D03*
X036435Y010790D03*
X035765Y010790D03*
X034185Y007540D03*
X033515Y007540D03*
X021935Y011790D03*
X021265Y011790D03*
X019435Y016540D03*
X018765Y016540D03*
X018765Y017540D03*
X019435Y017540D03*
X021015Y017790D03*
X021685Y017790D03*
X014435Y016790D03*
X013765Y016790D03*
X010935Y016290D03*
X010265Y016290D03*
X029765Y022790D03*
X030435Y022790D03*
X034515Y025040D03*
X035185Y025040D03*
D20*
X037600Y024955D03*
X037600Y025624D03*
X035600Y027955D03*
X035600Y028624D03*
X034600Y028624D03*
X034600Y027955D03*
X033600Y027955D03*
X033600Y028624D03*
X032600Y027624D03*
X032600Y026955D03*
X019100Y026124D03*
X019100Y025455D03*
X017600Y025455D03*
X017600Y026124D03*
X019100Y009124D03*
X019100Y008455D03*
X015350Y008455D03*
X015350Y009124D03*
X035600Y007624D03*
X035600Y006955D03*
D21*
X030100Y028290D03*
X030100Y032290D03*
D22*
X008691Y032469D03*
X008454Y030540D03*
X002746Y030540D03*
X002509Y032469D03*
X036100Y004290D03*
D23*
X019350Y024290D03*
X017350Y024290D03*
D24*
G36*
X005642Y023221D02*
X005837Y023416D01*
X006074Y023179D01*
X005879Y022984D01*
X005642Y023221D01*
G37*
G36*
X005419Y022998D02*
X005614Y023193D01*
X005851Y022956D01*
X005656Y022761D01*
X005419Y022998D01*
G37*
G36*
X005197Y022775D02*
X005392Y022970D01*
X005629Y022733D01*
X005434Y022538D01*
X005197Y022775D01*
G37*
G36*
X004974Y022553D02*
X005169Y022748D01*
X005406Y022511D01*
X005211Y022316D01*
X004974Y022553D01*
G37*
G36*
X004626Y022901D02*
X004821Y023096D01*
X005058Y022859D01*
X004863Y022664D01*
X004626Y022901D01*
G37*
G36*
X004849Y023123D02*
X005044Y023318D01*
X005281Y023081D01*
X005086Y022886D01*
X004849Y023123D01*
G37*
G36*
X005071Y023346D02*
X005266Y023541D01*
X005503Y023304D01*
X005308Y023109D01*
X005071Y023346D01*
G37*
G36*
X005294Y023569D02*
X005489Y023764D01*
X005726Y023527D01*
X005531Y023332D01*
X005294Y023569D01*
G37*
G36*
X004044Y022319D02*
X004239Y022514D01*
X004476Y022277D01*
X004281Y022082D01*
X004044Y022319D01*
G37*
G36*
X003821Y022096D02*
X004016Y022291D01*
X004253Y022054D01*
X004058Y021859D01*
X003821Y022096D01*
G37*
G36*
X003599Y021873D02*
X003794Y022068D01*
X004031Y021831D01*
X003836Y021636D01*
X003599Y021873D01*
G37*
G36*
X003376Y021651D02*
X003571Y021846D01*
X003808Y021609D01*
X003613Y021414D01*
X003376Y021651D01*
G37*
G36*
X003724Y021303D02*
X003919Y021498D01*
X004156Y021261D01*
X003961Y021066D01*
X003724Y021303D01*
G37*
G36*
X003947Y021525D02*
X004142Y021720D01*
X004379Y021483D01*
X004184Y021288D01*
X003947Y021525D01*
G37*
G36*
X004169Y021748D02*
X004364Y021943D01*
X004601Y021706D01*
X004406Y021511D01*
X004169Y021748D01*
G37*
G36*
X004392Y021971D02*
X004587Y022166D01*
X004824Y021929D01*
X004629Y021734D01*
X004392Y021971D01*
G37*
D25*
X001706Y027652D03*
D26*
X001706Y026864D03*
X001706Y026077D03*
X002494Y026077D03*
X002494Y026864D03*
X002494Y027652D03*
X002494Y025290D03*
X001706Y025290D03*
X001706Y024502D03*
X001706Y023715D03*
X002494Y023715D03*
X002494Y024502D03*
X002494Y022927D03*
X001706Y022927D03*
D27*
X022015Y005790D03*
X027185Y005790D03*
D28*
X018100Y006090D03*
X018100Y007090D03*
X016350Y007090D03*
X016350Y006090D03*
M02*
