G75*
G70*
%OFA0B0*%
%FSLAX24Y24*%
%IPPOS*%
%LPD*%
%AMOC8*
5,1,8,0,0,1.08239X$1,22.5*
%
%ADD10C,0.0080*%
%ADD11C,0.0160*%
%ADD12C,0.0157*%
%ADD13C,0.0050*%
%ADD14C,0.0020*%
%ADD15C,0.0100*%
%ADD16C,0.0220*%
%ADD17R,0.0180X0.0300*%
%ADD18R,0.0300X0.0180*%
%ADD19C,0.0315*%
%ADD20C,0.0020*%
%ADD21C,0.0060*%
D10*
X003640Y002956D02*
X004261Y002956D01*
X005049Y002956D01*
X007560Y002956D01*
X007560Y011624D01*
X003640Y011624D01*
X003640Y002956D01*
X004261Y002956D02*
X004263Y002995D01*
X004269Y003033D01*
X004278Y003070D01*
X004291Y003107D01*
X004308Y003142D01*
X004327Y003175D01*
X004350Y003206D01*
X004376Y003235D01*
X004405Y003261D01*
X004436Y003284D01*
X004469Y003303D01*
X004504Y003320D01*
X004541Y003333D01*
X004578Y003342D01*
X004616Y003348D01*
X004655Y003350D01*
X004694Y003348D01*
X004732Y003342D01*
X004769Y003333D01*
X004806Y003320D01*
X004841Y003303D01*
X004874Y003284D01*
X004905Y003261D01*
X004934Y003235D01*
X004960Y003206D01*
X004983Y003175D01*
X005002Y003142D01*
X005019Y003107D01*
X005032Y003070D01*
X005041Y003033D01*
X005047Y002995D01*
X005049Y002956D01*
X022540Y010121D02*
X022540Y010459D01*
X022994Y009971D02*
X023206Y009971D01*
X023660Y010121D02*
X023660Y010459D01*
X029600Y008290D02*
X029876Y008290D01*
X029600Y008290D02*
X029600Y003526D01*
X030230Y002935D02*
X033537Y002935D01*
X033537Y002936D02*
X033575Y002933D01*
X033613Y002927D01*
X033650Y002917D01*
X033686Y002903D01*
X033721Y002887D01*
X033753Y002867D01*
X033784Y002844D01*
X033813Y002818D01*
X033839Y002789D01*
X033862Y002758D01*
X033882Y002726D01*
X033898Y002691D01*
X033912Y002655D01*
X033922Y002618D01*
X033928Y002580D01*
X033931Y002542D01*
X033930Y002510D01*
X033934Y002479D01*
X033941Y002448D01*
X033952Y002418D01*
X033966Y002390D01*
X033984Y002364D01*
X034005Y002340D01*
X034029Y002319D01*
X034055Y002301D01*
X034083Y002287D01*
X034113Y002276D01*
X034144Y002269D01*
X034175Y002265D01*
X034207Y002266D01*
X034206Y002266D02*
X034521Y002266D01*
X035112Y003093D02*
X035112Y008290D01*
X033183Y008290D01*
X032120Y008290D02*
X030939Y008290D01*
X036900Y007140D02*
X036900Y005440D01*
X037700Y005090D02*
X038493Y005090D01*
X039300Y005440D02*
X039300Y007140D01*
X038505Y007490D02*
X037700Y007490D01*
X037400Y006290D02*
X037402Y006342D01*
X037408Y006394D01*
X037418Y006446D01*
X037431Y006496D01*
X037448Y006546D01*
X037469Y006594D01*
X037494Y006640D01*
X037522Y006684D01*
X037553Y006726D01*
X037587Y006766D01*
X037624Y006803D01*
X037664Y006837D01*
X037706Y006868D01*
X037750Y006896D01*
X037796Y006921D01*
X037844Y006942D01*
X037894Y006959D01*
X037944Y006972D01*
X037996Y006982D01*
X038048Y006988D01*
X038100Y006990D01*
X038152Y006988D01*
X038204Y006982D01*
X038256Y006972D01*
X038306Y006959D01*
X038356Y006942D01*
X038404Y006921D01*
X038450Y006896D01*
X038494Y006868D01*
X038536Y006837D01*
X038576Y006803D01*
X038613Y006766D01*
X038647Y006726D01*
X038678Y006684D01*
X038706Y006640D01*
X038731Y006594D01*
X038752Y006546D01*
X038769Y006496D01*
X038782Y006446D01*
X038792Y006394D01*
X038798Y006342D01*
X038800Y006290D01*
X038798Y006238D01*
X038792Y006186D01*
X038782Y006134D01*
X038769Y006084D01*
X038752Y006034D01*
X038731Y005986D01*
X038706Y005940D01*
X038678Y005896D01*
X038647Y005854D01*
X038613Y005814D01*
X038576Y005777D01*
X038536Y005743D01*
X038494Y005712D01*
X038450Y005684D01*
X038404Y005659D01*
X038356Y005638D01*
X038306Y005621D01*
X038256Y005608D01*
X038204Y005598D01*
X038152Y005592D01*
X038100Y005590D01*
X038048Y005592D01*
X037996Y005598D01*
X037944Y005608D01*
X037894Y005621D01*
X037844Y005638D01*
X037796Y005659D01*
X037750Y005684D01*
X037706Y005712D01*
X037664Y005743D01*
X037624Y005777D01*
X037587Y005814D01*
X037553Y005854D01*
X037522Y005896D01*
X037494Y005940D01*
X037469Y005986D01*
X037448Y006034D01*
X037431Y006084D01*
X037418Y006134D01*
X037408Y006186D01*
X037402Y006238D01*
X037400Y006290D01*
X035706Y019971D02*
X035494Y019971D01*
X035040Y020121D02*
X035040Y020459D01*
X036160Y020459D02*
X036160Y020121D01*
X036350Y023831D02*
X036657Y023831D01*
X037366Y023831D02*
X038039Y023831D01*
X038039Y027752D01*
X038039Y028921D02*
X038039Y030366D01*
X031661Y030366D01*
X031661Y028921D01*
X031679Y027752D02*
X031679Y023831D01*
X032350Y023831D01*
X033043Y023831D02*
X033350Y023831D01*
X034067Y023831D02*
X035633Y023831D01*
X030439Y023069D02*
X030320Y022951D01*
X027880Y022951D01*
X027761Y023069D01*
X027761Y025510D01*
X027880Y025628D01*
X030320Y025628D01*
X030439Y025510D01*
X030439Y023069D01*
X029372Y028396D02*
X028545Y028396D01*
X029372Y028396D02*
X029372Y032609D01*
X025828Y032609D01*
X025828Y030522D01*
X023468Y029274D02*
X023232Y029274D01*
X022720Y028526D02*
X022720Y028053D01*
X023232Y027305D02*
X023468Y027305D01*
X023980Y028053D02*
X023980Y028526D01*
X025828Y028396D02*
X025828Y028671D01*
X025828Y028396D02*
X026655Y028396D01*
X019700Y025190D02*
X017000Y025190D01*
X016941Y025188D01*
X016883Y025182D01*
X016824Y025173D01*
X016767Y025159D01*
X016711Y025142D01*
X016656Y025121D01*
X016602Y025097D01*
X016550Y025069D01*
X016500Y025038D01*
X016452Y025004D01*
X016407Y024967D01*
X016364Y024926D01*
X016323Y024883D01*
X016286Y024838D01*
X016252Y024790D01*
X016221Y024740D01*
X016193Y024688D01*
X016169Y024634D01*
X016148Y024579D01*
X016131Y024523D01*
X016117Y024466D01*
X016108Y024407D01*
X016102Y024349D01*
X016100Y024290D01*
X016102Y024231D01*
X016108Y024173D01*
X016117Y024114D01*
X016131Y024057D01*
X016148Y024001D01*
X016169Y023946D01*
X016193Y023892D01*
X016221Y023840D01*
X016252Y023790D01*
X016286Y023742D01*
X016323Y023697D01*
X016364Y023654D01*
X016407Y023613D01*
X016452Y023576D01*
X016500Y023542D01*
X016550Y023511D01*
X016602Y023483D01*
X016656Y023459D01*
X016711Y023438D01*
X016767Y023421D01*
X016824Y023407D01*
X016883Y023398D01*
X016941Y023392D01*
X017000Y023390D01*
X019700Y023390D01*
X019759Y023392D01*
X019817Y023398D01*
X019876Y023407D01*
X019933Y023421D01*
X019989Y023438D01*
X020044Y023459D01*
X020098Y023483D01*
X020150Y023511D01*
X020200Y023542D01*
X020248Y023576D01*
X020293Y023613D01*
X020336Y023654D01*
X020377Y023697D01*
X020414Y023742D01*
X020448Y023790D01*
X020479Y023840D01*
X020507Y023892D01*
X020531Y023946D01*
X020552Y024001D01*
X020569Y024057D01*
X020583Y024114D01*
X020592Y024173D01*
X020598Y024231D01*
X020600Y024290D01*
X020598Y024349D01*
X020592Y024407D01*
X020583Y024466D01*
X020569Y024523D01*
X020552Y024579D01*
X020531Y024634D01*
X020507Y024688D01*
X020479Y024740D01*
X020448Y024790D01*
X020414Y024838D01*
X020377Y024883D01*
X020336Y024926D01*
X020293Y024967D01*
X020248Y025004D01*
X020200Y025038D01*
X020150Y025069D01*
X020098Y025097D01*
X020044Y025121D01*
X019989Y025142D01*
X019933Y025159D01*
X019876Y025173D01*
X019817Y025182D01*
X019759Y025188D01*
X019700Y025190D01*
X011519Y027230D02*
X011181Y027230D01*
X011031Y027684D02*
X011031Y027895D01*
X011181Y028350D02*
X011519Y028350D01*
X011269Y029730D02*
X010931Y029730D01*
X010781Y030184D02*
X010781Y030395D01*
X010931Y030850D02*
X011269Y030850D01*
X003084Y028242D02*
X003084Y022337D01*
X001116Y022337D01*
X001116Y028242D01*
X003084Y028242D01*
D11*
X027583Y022597D02*
X027585Y022612D01*
X027590Y022625D01*
X027599Y022637D01*
X027610Y022647D01*
X027624Y022653D01*
X027638Y022656D01*
X027653Y022655D01*
X027667Y022650D01*
X027680Y022642D01*
X027690Y022632D01*
X027697Y022619D01*
X027701Y022604D01*
X027701Y022590D01*
X027697Y022575D01*
X027690Y022562D01*
X027680Y022552D01*
X027667Y022544D01*
X027653Y022539D01*
X027638Y022538D01*
X027624Y022541D01*
X027610Y022547D01*
X027599Y022557D01*
X027590Y022569D01*
X027585Y022582D01*
X027583Y022597D01*
D12*
X028096Y023345D02*
X028098Y023363D01*
X028104Y023379D01*
X028113Y023394D01*
X028126Y023407D01*
X028141Y023416D01*
X028157Y023422D01*
X028175Y023424D01*
X028193Y023422D01*
X028209Y023416D01*
X028224Y023407D01*
X028237Y023394D01*
X028246Y023379D01*
X028252Y023363D01*
X028254Y023345D01*
X028252Y023327D01*
X028246Y023311D01*
X028237Y023296D01*
X028224Y023283D01*
X028209Y023274D01*
X028193Y023268D01*
X028175Y023266D01*
X028157Y023268D01*
X028141Y023274D01*
X028126Y023283D01*
X028113Y023296D01*
X028104Y023311D01*
X028098Y023327D01*
X028096Y023345D01*
D13*
X029925Y029165D02*
X029925Y029340D01*
X029983Y029398D01*
X030100Y029398D01*
X030158Y029340D01*
X030158Y029165D01*
X030158Y029281D02*
X030275Y029398D01*
X030275Y029533D02*
X029925Y029533D01*
X029925Y029708D01*
X029983Y029766D01*
X030100Y029766D01*
X030158Y029708D01*
X030158Y029533D01*
X030158Y029901D02*
X030158Y030076D01*
X030100Y030135D01*
X029983Y030135D01*
X029925Y030076D01*
X029925Y029901D01*
X030275Y029901D01*
X030158Y030018D02*
X030275Y030135D01*
X030217Y030270D02*
X030275Y030328D01*
X030275Y030445D01*
X030217Y030503D01*
X029983Y030503D01*
X029925Y030445D01*
X029925Y030328D01*
X029983Y030270D01*
X030217Y030270D01*
X029925Y030638D02*
X029925Y030871D01*
X029925Y030755D02*
X030275Y030755D01*
X030275Y029165D02*
X029925Y029165D01*
X022835Y029667D02*
X022837Y029673D01*
X022841Y029677D01*
X022848Y029678D01*
X022853Y029675D01*
X022857Y029670D01*
X022857Y029664D01*
X022853Y029659D01*
X022848Y029656D01*
X022841Y029657D01*
X022837Y029661D01*
X022835Y029667D01*
X022789Y029667D02*
X022791Y029682D01*
X022797Y029695D01*
X022806Y029707D01*
X022817Y029716D01*
X022831Y029722D01*
X022846Y029724D01*
X022861Y029722D01*
X022874Y029716D01*
X022886Y029707D01*
X022895Y029696D01*
X022901Y029682D01*
X022903Y029667D01*
X022901Y029652D01*
X022895Y029639D01*
X022886Y029627D01*
X022875Y029618D01*
X022861Y029612D01*
X022846Y029610D01*
X022831Y029612D01*
X022818Y029618D01*
X022806Y029627D01*
X022797Y029638D01*
X022791Y029652D01*
X022789Y029667D01*
X022742Y029667D02*
X022744Y029687D01*
X022749Y029706D01*
X022759Y029723D01*
X022771Y029739D01*
X022786Y029752D01*
X022803Y029762D01*
X022821Y029768D01*
X022841Y029771D01*
X022861Y029770D01*
X022880Y029765D01*
X022898Y029757D01*
X022914Y029746D01*
X022928Y029731D01*
X022938Y029715D01*
X022946Y029696D01*
X022950Y029677D01*
X022950Y029657D01*
X022946Y029638D01*
X022938Y029619D01*
X022928Y029603D01*
X022914Y029588D01*
X022898Y029577D01*
X022880Y029569D01*
X022861Y029564D01*
X022841Y029563D01*
X022821Y029566D01*
X022803Y029572D01*
X022786Y029582D01*
X022771Y029595D01*
X022759Y029611D01*
X022749Y029628D01*
X022744Y029647D01*
X022742Y029667D01*
X036350Y021790D02*
X036350Y020090D01*
X036400Y020090D01*
X036400Y019490D01*
X036350Y019490D01*
X036350Y018940D01*
X036550Y018790D01*
X036550Y018590D01*
X036550Y017990D01*
X036550Y017790D01*
X036350Y017640D01*
X036350Y016090D01*
X036750Y016090D01*
X036850Y016090D01*
X036850Y017990D01*
X036850Y018590D01*
X036850Y021290D01*
X039350Y021290D01*
X039350Y009290D01*
X036850Y009290D01*
X036850Y010990D01*
X036850Y011590D01*
X036850Y014490D01*
X036750Y014490D01*
X036350Y014490D01*
X036350Y016090D01*
X036850Y016090D02*
X037150Y016090D01*
X037150Y014490D01*
X036850Y014490D01*
X036975Y014794D02*
X036675Y015094D01*
X036600Y015094D01*
X036525Y015019D01*
X036525Y014869D01*
X036600Y014794D01*
X036975Y014794D02*
X036975Y015094D01*
X036900Y015254D02*
X036600Y015554D01*
X036900Y015554D01*
X036975Y015479D01*
X036975Y015329D01*
X036900Y015254D01*
X036600Y015254D01*
X036525Y015329D01*
X036525Y015479D01*
X036600Y015554D01*
X036350Y014490D02*
X036350Y011940D01*
X036550Y011790D01*
X036550Y011590D01*
X036550Y010990D01*
X036750Y010990D01*
X036850Y010990D01*
X036550Y010990D02*
X036550Y010790D01*
X036350Y010640D01*
X036350Y008790D01*
X039850Y008790D01*
X039850Y009290D01*
X039950Y009290D01*
X039950Y009790D01*
X039850Y009790D01*
X039850Y015040D01*
X039950Y015040D01*
X039950Y015540D01*
X039850Y015540D01*
X039850Y020790D01*
X039950Y020790D01*
X039950Y021290D01*
X039850Y021290D01*
X039850Y021790D01*
X036350Y021790D01*
X037825Y020654D02*
X037825Y020354D01*
X037825Y020504D02*
X037375Y020504D01*
X037525Y020354D01*
X038375Y020429D02*
X038450Y020354D01*
X038375Y020429D02*
X038375Y020579D01*
X038450Y020654D01*
X038525Y020654D01*
X038825Y020354D01*
X038825Y020654D01*
X036850Y018590D02*
X036750Y018590D01*
X036550Y018590D01*
X036550Y017990D02*
X036750Y017990D01*
X036850Y017990D01*
X036850Y011590D02*
X036750Y011590D01*
X036550Y011590D01*
X027185Y007245D02*
X027185Y001740D01*
X027150Y001740D02*
X022050Y001740D01*
X022015Y001740D02*
X022015Y007245D01*
X022040Y007250D02*
X027160Y007250D01*
X026600Y004790D02*
X026350Y002290D01*
X025100Y002290D01*
X024850Y004790D01*
X024350Y004790D02*
X024100Y002290D01*
X022850Y002290D01*
X022600Y004790D01*
X008814Y016494D02*
X008816Y016521D01*
X008822Y016548D01*
X008831Y016574D01*
X008844Y016598D01*
X008860Y016621D01*
X008879Y016640D01*
X008901Y016657D01*
X008925Y016671D01*
X008950Y016681D01*
X008977Y016688D01*
X009004Y016691D01*
X009032Y016690D01*
X009059Y016685D01*
X009085Y016677D01*
X009109Y016665D01*
X009132Y016649D01*
X009153Y016631D01*
X009170Y016610D01*
X009185Y016586D01*
X009196Y016561D01*
X009204Y016535D01*
X009208Y016508D01*
X009208Y016480D01*
X009204Y016453D01*
X009196Y016427D01*
X009185Y016402D01*
X009170Y016378D01*
X009153Y016357D01*
X009132Y016339D01*
X009110Y016323D01*
X009085Y016311D01*
X009059Y016303D01*
X009032Y016298D01*
X009004Y016297D01*
X008977Y016300D01*
X008950Y016307D01*
X008925Y016317D01*
X008901Y016331D01*
X008879Y016348D01*
X008860Y016367D01*
X008844Y016390D01*
X008831Y016414D01*
X008822Y016440D01*
X008816Y016467D01*
X008814Y016494D01*
X007441Y024699D02*
X006259Y024699D01*
X006259Y025880D01*
X007441Y025880D01*
X007441Y024699D01*
X008750Y033492D02*
X002450Y033492D01*
D14*
X036750Y021390D02*
X036750Y018590D01*
X036750Y017990D02*
X036750Y016090D01*
X036750Y014490D02*
X036750Y011590D01*
X036750Y010990D02*
X036750Y009190D01*
X039450Y009190D01*
X039450Y021390D01*
X036750Y021390D01*
D15*
X030100Y028790D02*
X030100Y029040D01*
X030600Y029040D01*
X030600Y031040D01*
X029600Y031040D01*
X029600Y029040D01*
X030100Y029040D01*
X029600Y031040D02*
X029600Y031540D01*
X030100Y031540D01*
X030100Y031790D01*
X030100Y031540D02*
X030600Y031540D01*
X030600Y031040D01*
X017309Y030605D02*
X017309Y031580D01*
X017309Y031609D02*
X015891Y031609D01*
X015891Y031061D01*
X015891Y031018D01*
X015891Y031061D02*
X015891Y028971D01*
X017309Y028971D01*
X017309Y028999D02*
X017309Y030575D01*
X015901Y023580D02*
X008421Y023580D01*
X008224Y023383D01*
X008224Y015903D01*
X008421Y015706D01*
X015901Y015706D01*
X016098Y015903D01*
X016098Y023383D01*
X015901Y023580D01*
X015550Y006590D02*
X015552Y006536D01*
X015557Y006482D01*
X015566Y006429D01*
X015579Y006376D01*
X015595Y006325D01*
X015615Y006275D01*
X015638Y006226D01*
X015664Y006178D01*
X015693Y006133D01*
X015726Y006090D01*
X015761Y006049D01*
X015799Y006010D01*
X015839Y005974D01*
X015882Y005941D01*
X015927Y005911D01*
X015974Y005884D01*
X016747Y005895D02*
X016795Y005925D01*
X016840Y005958D01*
X016883Y005994D01*
X016924Y006032D01*
X016961Y006074D01*
X016996Y006118D01*
X017027Y006164D01*
X017056Y006213D01*
X017080Y006263D01*
X017101Y006315D01*
X017119Y006369D01*
X017132Y006423D01*
X017142Y006478D01*
X017148Y006534D01*
X017150Y006590D01*
X017148Y006643D01*
X017143Y006697D01*
X017134Y006749D01*
X017122Y006801D01*
X017106Y006852D01*
X017087Y006902D01*
X017064Y006951D01*
X017038Y006998D01*
X017010Y007043D01*
X016978Y007086D01*
X016944Y007126D01*
X016906Y007165D01*
X016867Y007201D01*
X015838Y007205D02*
X015798Y007169D01*
X015760Y007130D01*
X015725Y007089D01*
X015693Y007046D01*
X015663Y007001D01*
X015637Y006954D01*
X015615Y006905D01*
X015595Y006854D01*
X015579Y006803D01*
X015566Y006751D01*
X015557Y006697D01*
X015552Y006644D01*
X015550Y006590D01*
X018497Y005895D02*
X018545Y005925D01*
X018590Y005958D01*
X018633Y005994D01*
X018674Y006032D01*
X018711Y006074D01*
X018746Y006118D01*
X018777Y006164D01*
X018806Y006213D01*
X018830Y006263D01*
X018851Y006315D01*
X018869Y006369D01*
X018882Y006423D01*
X018892Y006478D01*
X018898Y006534D01*
X018900Y006590D01*
X017724Y005884D02*
X017677Y005911D01*
X017632Y005941D01*
X017589Y005974D01*
X017549Y006010D01*
X017511Y006049D01*
X017476Y006090D01*
X017443Y006133D01*
X017414Y006178D01*
X017388Y006226D01*
X017365Y006275D01*
X017345Y006325D01*
X017329Y006376D01*
X017316Y006429D01*
X017307Y006482D01*
X017302Y006536D01*
X017300Y006590D01*
X018617Y007201D02*
X018656Y007165D01*
X018694Y007126D01*
X018728Y007086D01*
X018760Y007043D01*
X018788Y006998D01*
X018814Y006951D01*
X018837Y006902D01*
X018856Y006852D01*
X018872Y006801D01*
X018884Y006749D01*
X018893Y006697D01*
X018898Y006643D01*
X018900Y006590D01*
X017588Y007205D02*
X017548Y007169D01*
X017510Y007130D01*
X017475Y007089D01*
X017443Y007046D01*
X017413Y007001D01*
X017387Y006954D01*
X017365Y006905D01*
X017345Y006854D01*
X017329Y006803D01*
X017316Y006751D01*
X017307Y006697D01*
X017302Y006644D01*
X017300Y006590D01*
D16*
X021100Y009278D02*
X021100Y009302D01*
X021100Y010278D02*
X021100Y010302D01*
X022338Y008540D02*
X022362Y008540D01*
X035100Y017278D02*
X035100Y017302D01*
X034362Y020290D02*
X034338Y020290D01*
X033100Y020302D02*
X033100Y020278D01*
X033100Y021278D02*
X033100Y021302D01*
X038088Y022790D02*
X038112Y022790D01*
X025862Y026040D02*
X025838Y026040D01*
X025112Y026040D02*
X025088Y026040D01*
X019100Y030328D02*
X019100Y030352D01*
X019100Y031278D02*
X019100Y031302D01*
X014362Y029540D02*
X014338Y029540D01*
X012350Y031528D02*
X012350Y031552D01*
X010850Y031552D02*
X010850Y031528D01*
X010600Y032278D02*
X010600Y032302D01*
X009600Y029302D02*
X009600Y029278D01*
X011100Y029052D02*
X011100Y029028D01*
X011100Y026552D02*
X011100Y026528D01*
D17*
X008600Y026290D03*
X008600Y027040D03*
X008850Y028040D03*
X008100Y029290D03*
X017600Y022290D03*
X023350Y030290D03*
X029350Y020540D03*
X035600Y021540D03*
X023100Y012790D03*
X030600Y009290D03*
D18*
X025600Y009790D03*
X024600Y009790D03*
X032600Y022790D03*
X033600Y022790D03*
X036100Y022790D03*
X037100Y022790D03*
X030850Y026790D03*
X029850Y027040D03*
X026600Y025540D03*
X012850Y027790D03*
X012600Y030290D03*
X007350Y028040D03*
X006600Y028040D03*
D19*
X007332Y003195D03*
D20*
X007146Y025683D02*
X007148Y025702D01*
X007153Y025721D01*
X007163Y025737D01*
X007175Y025752D01*
X007190Y025764D01*
X007206Y025774D01*
X007225Y025779D01*
X007244Y025781D01*
X007263Y025779D01*
X007282Y025774D01*
X007298Y025764D01*
X007313Y025752D01*
X007325Y025737D01*
X007335Y025721D01*
X007340Y025702D01*
X007342Y025683D01*
X007340Y025664D01*
X007335Y025645D01*
X007325Y025629D01*
X007313Y025614D01*
X007298Y025602D01*
X007282Y025592D01*
X007263Y025587D01*
X007244Y025585D01*
X007225Y025587D01*
X007206Y025592D01*
X007190Y025602D01*
X007175Y025614D01*
X007163Y025629D01*
X007153Y025645D01*
X007148Y025664D01*
X007146Y025683D01*
D21*
X016950Y006590D02*
X016948Y006545D01*
X016943Y006499D01*
X016935Y006455D01*
X016923Y006411D01*
X016907Y006368D01*
X016889Y006326D01*
X016867Y006286D01*
X016843Y006248D01*
X016816Y006212D01*
X016786Y006177D01*
X016753Y006146D01*
X016718Y006116D01*
X015750Y006590D02*
X015752Y006637D01*
X015758Y006685D01*
X015767Y006731D01*
X015780Y006777D01*
X015796Y006821D01*
X015817Y006865D01*
X015840Y006906D01*
X015866Y006945D01*
X015896Y006982D01*
X015929Y007017D01*
X015964Y007049D01*
X016001Y007078D01*
X015750Y006590D02*
X015752Y006544D01*
X015757Y006498D01*
X015766Y006452D01*
X015778Y006407D01*
X015794Y006364D01*
X015813Y006322D01*
X015836Y006281D01*
X015861Y006242D01*
X015889Y006206D01*
X015920Y006171D01*
X015954Y006139D01*
X015990Y006110D01*
X016950Y006590D02*
X016948Y006635D01*
X016943Y006681D01*
X016935Y006725D01*
X016923Y006769D01*
X016907Y006812D01*
X016889Y006854D01*
X016867Y006894D01*
X016843Y006932D01*
X016816Y006968D01*
X016786Y007003D01*
X016753Y007034D01*
X016718Y007064D01*
X018468Y006116D02*
X018503Y006146D01*
X018536Y006177D01*
X018566Y006212D01*
X018593Y006248D01*
X018617Y006286D01*
X018639Y006326D01*
X018657Y006368D01*
X018673Y006411D01*
X018685Y006455D01*
X018693Y006499D01*
X018698Y006545D01*
X018700Y006590D01*
X017740Y006110D02*
X017704Y006139D01*
X017670Y006171D01*
X017639Y006206D01*
X017611Y006242D01*
X017586Y006281D01*
X017563Y006322D01*
X017544Y006364D01*
X017528Y006407D01*
X017516Y006452D01*
X017507Y006498D01*
X017502Y006544D01*
X017500Y006590D01*
X018468Y007064D02*
X018503Y007034D01*
X018536Y007003D01*
X018566Y006968D01*
X018593Y006932D01*
X018617Y006894D01*
X018639Y006854D01*
X018657Y006812D01*
X018673Y006769D01*
X018685Y006725D01*
X018693Y006681D01*
X018698Y006635D01*
X018700Y006590D01*
X017751Y007078D02*
X017714Y007049D01*
X017679Y007017D01*
X017646Y006982D01*
X017616Y006945D01*
X017590Y006906D01*
X017567Y006865D01*
X017546Y006821D01*
X017530Y006777D01*
X017517Y006731D01*
X017508Y006685D01*
X017502Y006637D01*
X017500Y006590D01*
M02*
