%
M48
M72
T01C0.0236
T02C0.0276
T03C0.0320
T04C0.0354
T05C0.0360
T06C0.0394
T07C0.0400
T08C0.0402
T09C0.0551
T10C0.0630
T11C0.0910
T12C0.1102
T13C0.1180
T14C0.1240
%
T01
X1850Y3790
X2600Y4790
X2600Y6540
X7100Y6040
X7100Y4290
X14850Y5690
X19600Y5690
X23350Y11790
X24350Y12540
X22850Y13290
X22850Y14540
X23350Y14540
X23850Y14540
X23850Y15040
X25600Y14940
X26350Y15290
X27600Y16040
X28600Y16290
X29100Y15040
X31100Y15040
X32600Y15290
X35100Y13290
X33600Y12790
X30350Y11290
X29850Y12290
X27600Y10290
X28100Y7290
X29100Y7290
X28600Y5790
X28600Y3440
X31500Y8790
X33350Y9040
X33850Y9540
X26350Y16790
X27600Y17790
X27100Y18790
X28850Y19540
X30510Y19960
X29600Y21290
X28350Y21290
X27850Y21290
X27850Y21790
X28600Y23290
X28350Y23790
X28850Y23790
X28100Y24540
X28350Y25290
X28850Y24790
X29350Y24790
X29850Y25290
X30010Y24460
X30010Y23710
X31510Y22460
X34350Y23290
X31350Y25790
X30850Y27790
X28850Y27290
X28850Y26790
X27100Y25790
X26600Y24540
X26100Y24540
X26600Y24040
X26600Y23540
X25850Y22040
X25850Y21540
X24850Y21290
X24850Y20790
X24350Y20790
X24350Y20290
X23850Y20290
X23850Y19790
X23350Y19790
X23350Y19290
X22850Y19290
X22000Y18790
X21100Y18790
X19600Y18040
X20350Y17290
X20350Y16790
X17600Y16040
X17100Y15540
X15850Y17540
X15350Y17790
X14850Y18790
X14100Y18790
X12100Y20290
X12100Y20790
X12600Y20790
X12600Y21290
X13100Y21290
X13100Y21790
X13600Y21790
X13600Y22290
X14100Y22290
X14100Y22790
X15100Y23290
X14750Y21440
X12320Y22690
X11850Y23090
X10350Y21790
X9100Y22940
X7850Y23540
X7850Y24040
X8600Y25290
X9100Y24790
X9100Y25790
X10350Y25790
X10100Y24940
X11350Y24790
X12600Y24790
X12600Y25290
X13600Y25940
X9850Y27540
X6325Y23690
X6600Y22290
X6600Y21790
X6100Y21790
X6100Y21290
X5600Y21290
X5600Y20790
X5100Y20790
X5100Y20290
X8600Y19540
X8600Y18540
X8600Y17040
X9100Y16290
X12100Y16040
X12250Y14290
X14100Y16040
X14600Y16040
X18100Y19190
X21600Y22540
X22450Y22390
X22950Y22390
X23450Y22390
X23950Y22390
X23850Y24040
X24600Y24040
X23350Y24290
X22600Y24290
X22100Y24290
X21600Y24290
X21100Y24290
X23600Y26290
X23350Y18290
X23850Y18290
X23850Y17790
X25350Y18290
X8100Y11790
X3350Y12290
X3350Y24040
T02
X17350Y24290
X19350Y24290
T03
X18100Y7090
X18100Y6090
X16350Y6090
X16350Y7090
T04
X33100Y26040
X34100Y26040
X35100Y26040
X36100Y26040
X35600Y27040
X36600Y27040
X34600Y27040
X33600Y27040
T05
X37600Y19790
X38600Y19790
X38600Y18790
X37600Y18790
X37600Y17790
X38600Y17790
X38600Y16790
X37600Y16790
X37600Y15790
X38600Y15790
X38600Y14790
X37600Y14790
X37600Y13790
X38600Y13790
X38600Y12790
X37600Y12790
X37600Y11790
X38600Y11790
X38600Y10790
X37600Y10790
X2494Y22927
X1706Y22927
X1706Y23715
X1706Y24502
X1706Y25290
X2494Y25290
X2494Y24502
X2494Y23715
X2494Y26077
X2494Y26864
X1706Y26864
X1706Y26077
X1706Y27652
X2494Y27652
T06
X30100Y28290
X30100Y32290
T07
X37210Y7570
X38990Y7570
X38990Y5010
X37210Y5010
T08
X37002Y24138
X36002Y24138
X33698Y24138
X32698Y24138
T09
X36100Y4290
X8454Y30540
X8691Y32469
X2509Y32469
X2746Y30540
T10
X31740Y28339
X37960Y28339
T11
X27185Y5790
X22015Y5790
T12
X1100Y2790
X1100Y32790
X39100Y32790
X39100Y2790
T13
X27600Y28396
X25750Y29577
X27600Y30758
T14
X32600Y29540
X37100Y29540
M30
