G75*
G70*
%OFA0B0*%
%FSLAX24Y24*%
%IPPOS*%
%LPD*%
%AMOC8*
5,1,8,0,0,1.08239X$1,22.5*
%
%ADD10R,0.0180X0.0300*%
%ADD11C,0.0220*%
%ADD12R,0.0300X0.0180*%
D10*
X019100Y016540D03*
X019100Y017540D03*
X029900Y027190D03*
X034850Y025040D03*
X036100Y014790D03*
X036100Y011790D03*
X036100Y010790D03*
X033850Y007540D03*
D11*
X006612Y012290D02*
X006588Y012290D01*
X010600Y016278D02*
X010600Y016302D01*
X009612Y017290D02*
X009588Y017290D01*
X007612Y020290D02*
X007588Y020290D01*
X010100Y023778D02*
X010100Y023802D01*
X013100Y023778D02*
X013100Y023802D01*
X015088Y024790D02*
X015112Y024790D01*
X017588Y025790D02*
X017612Y025790D01*
X019088Y025790D02*
X019112Y025790D01*
X011100Y027278D02*
X011100Y027302D01*
X002462Y021290D02*
X002438Y021290D01*
X016550Y017502D02*
X016550Y017478D01*
X021350Y017778D02*
X021350Y017802D01*
X021600Y011802D02*
X021600Y011778D01*
X031388Y007240D02*
X031412Y007240D01*
X035588Y007290D02*
X035612Y007290D01*
X028150Y022478D02*
X028150Y022502D01*
X030100Y022778D02*
X030100Y022802D01*
X029850Y026328D02*
X029850Y026352D01*
X033588Y028290D02*
X033612Y028290D01*
X037588Y025290D02*
X037612Y025290D01*
D12*
X035600Y028290D03*
X034600Y028290D03*
X032600Y027290D03*
X019100Y008790D03*
X015350Y008790D03*
X030100Y007790D03*
M02*
